<?xml version="1.0" encoding="UTF-8" standalone="no"?>
<!DOCTYPE svg PUBLIC "-//W3C//DTD SVG 1.1//EN" "http://www.w3.org/Graphics/SVG/1.1/DTD/svg11.dtd">
<svg width="7475" height="2614" viewBox="0 0 7475 2614" version="1.1" xmlns="http://www.w3.org/2000/svg" xmlns:xlink="http://www.w3.org/1999/xlink" xml:space="preserve" xmlns:serif="http://www.serif.com/" style="fill-rule:evenodd;clip-rule:evenodd;stroke-linejoin:round;stroke-miterlimit:2;">
    <g transform="matrix(5.55556,0,0,5.55556,8.01828e-14,0.226841)">
        <path d="M141.48,470.12C137.43,469.11 137.58,469.18 114.98,452.5C104.92,445.02 46.69,402.22 20.5,382.97C10.44,375.56 1.71,369.48 1.09,369.48C0.15,369.48 -0,344.61 -0,189.72L-0,9.96L1.64,7C3.98,2.95 8.11,0.76 13.64,0.76C16.06,0.76 18.78,1.15 19.64,1.62C20.5,2.09 30.01,9.03 40.84,17.05C51.6,25.08 76.23,43.32 95.48,57.66C155.27,102.17 155.35,102.25 156.91,105.29C158.24,108.02 158.31,117.29 158.39,283.8C158.55,449.29 158.47,459.66 157.22,462.31C154.96,466.99 151.3,469.95 147.32,470.34C145.37,470.57 142.8,470.42 141.47,470.11L141.48,470.12ZM115.99,289.66C118.95,288.1 121.99,284.59 123.08,281.48C123.63,279.84 123.94,272.67 123.94,262.77C123.94,247.57 123.86,246.48 122.23,243.2C121.22,241.25 120.19,239.91 118.71,238.9C116.29,237.19 114.44,235.11 109.6,235.5C103.36,236.05 99.62,238.99 97.6,242.66C96.51,244.76 96.2,247.8 96.04,261.84C95.73,280.31 96.2,283.12 100.48,287.17C104.14,290.68 111.71,291.85 115.99,289.66Z" style="fill:white;fill-rule:nonzero;"/>
        <path d="M185.52,241.1C185.52,129.79 185.29,107.1 184.43,102.81C182.79,95.09 179.05,88.47 173.13,82.62C169.15,78.57 96.43,23.45 70.39,4.67C67.74,2.72 65.48,0.93 65.48,0.62C65.48,0.23 111.78,0 168.45,0C238.22,0 271.19,0.23 270.88,0.78C270.57,1.25 271.27,2.65 272.36,3.98C273.45,5.23 274.7,7.57 275.17,9.2C275.72,11.15 275.95,69.14 275.95,187.32C275.95,381.89 276.42,365.36 270.65,371.29L267.84,374.17L185.52,374.17L185.52,241.1Z" style="fill:white;fill-rule:nonzero;"/>
        <path d="M504.58,372.69C497.1,370.82 487.04,365.83 481.35,361.15C471.45,353.04 463.89,340.57 460.23,326.23C457.74,316.49 456.88,298.48 458.36,287.49C463.27,250.85 488.06,230.27 525.4,231.75C536.16,232.14 542.24,233.7 551.28,238.22C565.47,245.31 576.15,259.42 581.21,277.66C583,283.9 583.31,286.94 583.63,299.33C583.94,312.04 583.79,314.76 582.3,321.94C579.1,337.45 574.12,347.2 563.67,358.03C556.97,364.97 553.22,367.46 543.56,371.52C538.49,373.62 537.64,373.7 524.23,373.94C512.77,374.1 509.19,373.86 504.59,372.69L504.58,372.69ZM531.86,343.15C537.16,340.5 541.37,335.98 544.8,329.12C549.09,320.55 551.11,305.5 549.56,292.87C548.08,280.32 544.73,272.76 538.02,266.44C532.56,261.37 528.51,260.05 520.17,260.59C500.92,261.99 491.72,275.63 491.8,302.84C491.8,318.59 495.31,329.81 502.56,337.61C510.67,346.26 521.35,348.29 531.87,343.14L531.86,343.15Z" style="fill:white;fill-rule:nonzero;"/>
        <path d="M652.06,373C622.98,366.69 604.9,341.9 603.57,306.51C602.63,282.27 608.4,263.48 620.88,250.38C626.8,244.07 631.56,240.56 639.2,237.05C647.07,233.39 652.61,232.29 664.92,231.75C674.66,231.36 677.16,231.52 682.93,232.92C700.86,237.29 714.03,247.65 721.83,263.87C735.32,291.62 732.43,329.51 715.13,352.11C706.87,362.87 699.54,368.17 687.22,372.14C681.69,374.01 679.97,374.17 668.9,374.09C662.04,374.09 654.71,373.62 652.06,373ZM677.94,342.91C685.74,339.17 691.04,331.61 694.31,319.6C696.26,312.51 696.26,292.47 694.31,285.3C691.19,273.61 685.5,265.73 677.63,262.15C673.73,260.36 672.64,260.2 666.56,260.59C657.91,261.14 653.85,262.77 648.71,267.68C640.37,275.71 637.17,286.78 637.87,305.1C638.1,311.57 638.81,318.04 639.51,320.77C645.2,341.51 661.49,350.94 677.94,342.91Z" style="fill:white;fill-rule:nonzero;"/>
        <path d="M914.84,373C906.42,371.29 895.82,366.76 888.18,361.77C877.11,354.44 877.19,356 887.32,343.76C892.15,337.99 896.6,333.16 897.3,333C897.92,332.92 900.81,334.33 903.61,336.2C923.8,349.76 948.67,348.59 948.67,334.02C948.67,327.32 943.99,323.89 923.34,315.7C902.6,307.44 893.56,301.2 888.5,291.85C882.34,280.47 882.5,265.81 888.81,253.97C893.64,244.93 905.1,236.66 916.95,233.55C919.44,232.93 926.3,232.15 932.15,231.91C944.86,231.29 950.94,232.53 962.32,238.07C969.26,241.34 977.21,246.96 977.99,249.06C978.38,250 964.66,268.08 962.63,269.33C962.24,269.64 960.92,269.1 959.67,268.24C958.42,267.3 954.68,265.28 951.33,263.72C946.11,261.23 944.31,260.76 938.39,260.52C932.78,260.21 930.52,260.52 926.15,261.92C923.11,262.86 920.15,264.26 919.45,265.04C917.5,267.22 917.11,271.43 918.67,274.63C920.77,279.15 924.67,281.18 947.12,289.91C961.77,295.6 967.86,299.11 973.23,304.95C979.78,311.97 982.97,320.54 982.97,330.75C982.97,341.51 979.07,351.1 971.04,359.75C965.9,365.44 962.39,367.7 953.58,371.29C947.66,373.63 947.03,373.71 933.86,373.86C924.35,374.02 918.58,373.78 914.84,373Z" style="fill:white;fill-rule:nonzero;"/>
        <path d="M331.14,372.06L328.18,371.75L328.18,303.23C328.18,241.57 328.34,234.79 329.43,234.32C330.13,234.09 341.43,233.85 354.69,233.85C380.1,233.85 387.27,234.55 397.56,237.9C422.66,246.01 436.46,266.2 437.86,297.07C438.64,313.75 435.68,329.5 429.75,340.88C426.4,347.27 416.97,358.26 411.98,361.62C407.15,364.89 396.16,369.1 387.5,371.05C381.19,372.45 377.91,372.61 357.25,372.45C344.47,372.37 332.7,372.22 331.14,372.06ZM382.67,342.36C392.88,338.38 398.57,331.68 401.92,319.52C403.01,315.7 403.32,311.57 403.4,302.06C403.4,291.15 403.17,288.89 401.61,283.74C398.41,273.53 393.43,267.45 385.08,263.55C381.26,261.76 379.78,261.6 371.44,261.52L362.09,261.52L361.86,302.44C361.78,324.97 361.86,343.75 362.02,344.14C362.49,345.54 377.92,344.14 382.68,342.35L382.67,342.36Z" style="fill:white;fill-rule:nonzero;"/>
        <path d="M843.59,371.83L830.1,371.44L822.69,357.41C818.64,349.69 813.1,339.09 810.45,333.79L805.62,324.2L789.26,324.66L789.03,348.28L788.87,371.82L755.35,371.82L755.35,303.69C755.35,249.98 755.58,235.33 756.36,234.86C756.83,234.55 770.78,234.16 787.31,234C814.98,233.77 817.94,233.84 825.04,235.33C844.45,239.31 855.91,249.6 859.42,266.2C861.84,277.58 860.28,290.21 855.29,299.72C852.02,305.88 842.97,315.7 840.56,315.7C839.62,315.7 838.53,316.17 838.07,316.79C837.37,317.65 838.23,319.75 842.12,326.69C848.9,338.85 860.98,360.21 864.57,366.37C866.13,369.18 867.3,371.67 867.06,371.98C866.9,372.37 864.57,372.53 861.92,372.45C859.27,372.37 851.01,372.06 843.6,371.83L843.59,371.83ZM814.44,295.52C820.75,293.57 823.4,291.54 825.82,286.71C829.33,279.77 828.39,271.04 823.72,266.05C819.67,261.68 816.63,261.06 802.13,261.29L789.27,261.52L789.04,279.29L788.88,296.98L799.33,296.98C807.36,296.98 810.87,296.67 814.45,295.5L814.44,295.52Z" style="fill:white;fill-rule:nonzero;"/>
        <path d="M1032.86,371.83L1032.86,261.91L995.44,261.91L995.6,248.11L995.83,234.23L1049.15,234C1078.54,233.92 1102.78,234.08 1103.01,234.39C1103.24,234.78 1103.32,241.09 1103.17,248.5L1102.86,261.91L1087.11,261.91C1078.54,261.91 1070.12,262.14 1068.56,262.38L1065.6,262.93L1065.6,371.83L1032.86,371.83Z" style="fill:white;fill-rule:nonzero;"/>
        <path d="M1124.6,327.24C1123.9,271.97 1123.9,240.56 1124.52,236.82L1125.07,233.86L1212.14,233.86L1212.14,261.92L1187.27,261.92C1173.63,261.92 1161.47,262.15 1160.22,262.39L1157.96,262.86L1157.96,286.48L1181.19,286.71L1204.34,286.87L1204.18,300.75L1203.95,314.55L1182.51,315.17C1169.1,315.56 1160.45,316.11 1159.28,316.65C1157.57,317.51 1157.57,317.74 1157.72,330.45L1157.95,343.39L1186.25,343.62L1214.47,343.78L1214.47,371.84L1125.06,371.84L1124.59,327.25L1124.6,327.24Z" style="fill:white;fill-rule:nonzero;"/>
        <path d="M1241.45,352.18C1241.14,341.34 1240.98,310.4 1241.14,283.35L1241.37,234.24L1273.72,234.24C1304.82,234.24 1306.3,234.32 1312.7,236.03C1330.24,240.63 1340.61,250.53 1344.27,265.96C1345.75,272.35 1345.75,285.21 1344.27,291.14C1341.7,301.35 1333.82,313.2 1326.65,317.64C1317.61,323.41 1303.42,326.6 1287.36,326.6C1278.24,326.6 1276.91,326.76 1275.75,328.08C1274.5,329.41 1274.42,331.67 1274.5,349.75C1274.58,360.82 1274.58,370.33 1274.58,370.87C1274.5,371.57 1270.68,371.81 1258.21,371.81L1241.92,371.81L1241.45,352.17L1241.45,352.18ZM1301.63,297.85C1309.19,294.5 1313.17,287.64 1312.93,278.21C1312.77,269.32 1308.56,264.02 1299.83,261.45C1296.01,260.36 1293.44,260.2 1285.49,260.67C1280.11,260.98 1275.67,261.29 1275.51,261.45C1274.89,262.07 1274.5,283.2 1274.96,290.92L1275.51,299.26L1278.32,299.57C1279.88,299.8 1284.79,299.88 1289.31,299.8C1295.94,299.64 1298.27,299.33 1301.63,297.85Z" style="fill:white;fill-rule:nonzero;"/>
        <path d="M687.53,200.57C670.07,198.93 654.48,193.48 640.68,184.28C629.45,176.72 617.53,162.69 611.99,150.37C601.93,128.15 599.21,98.14 604.9,73.67C613.86,35.32 640.76,9.05 679.11,1.25C686.36,-0.23 721.2,-0.54 720.89,0.86C720.73,1.33 723.46,2.65 726.89,3.82C734.84,6.55 742.56,10.52 749.5,15.43C756.83,20.57 760.26,23.93 759.79,25.25C759.56,25.87 754.02,32.73 747.55,40.45L735.86,54.56L731.34,50.9C728.92,48.95 723.93,45.83 720.27,44.12C713.96,41.08 713.25,40.92 704.91,40.61C693.61,40.3 687.06,41.47 679.34,45.21C671.78,48.87 663.05,56.51 659.15,62.98C655.64,68.75 652.06,79.66 650.81,88C650.26,91.98 650.03,98.52 650.34,104.76C651.59,134.62 664.29,152.93 687.99,159.01C696.56,161.19 708.65,161.11 715.97,158.78L721.43,156.99L721.82,143.04C722.05,135.32 722.05,128.07 721.9,126.9L721.67,124.72L691.43,124.72L691.59,106.25L691.82,87.7L694.16,87.23C695.49,86.92 711.7,86.68 730.25,86.61L763.92,86.53L763.92,177.43L760.26,180.94C755.58,185.46 750.36,188.97 744.59,191.46C742.17,192.55 739.45,193.8 738.59,194.19C729,198.56 714.89,201.13 701.17,200.97C695.17,200.97 689.01,200.74 687.53,200.58L687.53,200.57Z" style="fill:white;fill-rule:nonzero;"/>
        <path d="M328.72,197.45C328.41,197.22 328.17,153.33 328.17,100.01L328.17,3.04L367.77,3.35C404.8,3.58 407.76,3.74 414.31,5.3C433.56,9.82 449.54,18.24 459.83,29.31C465.6,35.47 468.4,39.52 472.38,47.39C479.4,61.5 482.36,74.6 483.06,94.32C483.92,120.43 479.71,139.84 469.34,157.85C464.35,166.5 451.96,179.13 443.23,184.67C433.95,190.44 420.16,195.12 406.13,197.22C400.52,198.08 329.5,198.31 328.72,197.45ZM397.32,158.32C416.03,154.42 427.18,143.2 432.79,122.77C434.27,117.24 434.5,114.59 434.5,99.38C434.5,84.1 434.27,81.53 432.79,76.07C427.72,57.67 417.43,46.84 401.06,42.4C394.75,40.76 377.75,39.98 376.12,41.31C375.11,42.17 374.95,49.42 374.95,100.55C374.95,132.51 375.18,159.01 375.5,159.25C376.51,160.34 390.39,159.72 397.33,158.31L397.32,158.32Z" style="fill:white;fill-rule:nonzero;"/>
        <path d="M1025.68,197.53C1025.13,196.98 1025.99,193.87 1035.42,163.7C1039.55,150.6 1050.62,114.82 1060.13,84.19C1084.76,4.76 1085,4.13 1086.32,3.59C1087.02,3.36 1099.81,3.12 1114.69,3.12L1141.9,3.12L1143.54,8.81C1146.03,17.31 1176.98,117.01 1190.31,159.33C1196.7,179.83 1202,196.75 1202,196.9C1202,197.06 1190.93,197.21 1177.45,197.21C1158.43,197.21 1152.74,196.98 1152.51,196.27C1152.35,195.72 1149.86,185.9 1146.98,174.44L1141.68,153.55L1113.93,153.55C1087.58,153.55 1086.02,153.63 1084.78,155.03C1084,155.89 1081.19,165.16 1078.15,177.09L1072.85,197.59L1049.46,197.82C1036.68,197.9 1025.92,197.82 1025.68,197.51L1025.68,197.53ZM1132.01,116.54C1132.4,116.15 1114.32,43.81 1113.61,43.11C1112.67,42.1 1110.88,43.73 1110.41,46.15C1110.1,47.55 1106.28,63.53 1101.76,81.62C1097.32,99.7 1093.65,114.91 1093.65,115.29C1093.65,115.76 1096.3,116.23 1099.73,116.38C1110.41,116.85 1131.61,116.93 1132,116.54L1132.01,116.54Z" style="fill:white;fill-rule:nonzero;"/>
        <path d="M1255.64,197.45L1222.28,197.22L1222.28,3.12L1244.81,3.12C1257.2,3.12 1267.88,2.89 1268.59,2.65C1269.76,2.18 1269.84,9.35 1269.84,79.67L1269.84,157.23L1286.83,157.7C1296.11,158.01 1313.1,158.25 1324.64,158.25L1345.45,158.25L1345.29,177.97L1345.06,197.61L1317,197.61C1301.57,197.61 1273.97,197.53 1255.65,197.45L1255.64,197.45Z" style="fill:white;fill-rule:nonzero;"/>
        <path d="M519.16,100.64C519.16,24.17 519.39,3.82 520.17,3.36C520.64,3.05 531.4,2.66 543.95,2.5L566.71,2.27L566.71,197.23L519.15,197.23L519.15,100.65L519.16,100.64Z" style="fill:white;fill-rule:nonzero;"/>
        <path d="M802.9,197.22L802.9,3.12L813.27,3.12C818.88,3.12 829.64,2.89 837.05,2.57L850.46,2.1L850.46,197.22L802.9,197.22Z" style="fill:white;fill-rule:nonzero;"/>
        <path d="M932.77,195.97C932.54,195.27 932.3,160.42 932.3,118.41L932.3,42.1L880.08,42.1L880.08,3.36L890.06,2.89C895.52,2.58 929.66,2.34 966.06,2.34L1032.08,2.34L1032.08,41.86L1006.98,42.41C991.08,42.72 981.49,43.27 980.87,43.81C980.09,44.43 979.86,59.56 979.86,120.9L979.86,197.21L956.55,197.21C936.05,197.21 933.16,197.05 932.77,195.96L932.77,195.97Z" style="fill:white;fill-rule:nonzero;"/>
    </g>
</svg>
