<?xml version="1.0" encoding="UTF-8" standalone="no"?><!DOCTYPE svg PUBLIC "-//W3C//DTD SVG 1.1//EN" "http://www.w3.org/Graphics/SVG/1.1/DTD/svg11.dtd"><svg width="100%" height="100%" viewBox="0 0 1534 2614" version="1.1" xmlns="http://www.w3.org/2000/svg" xmlns:xlink="http://www.w3.org/1999/xlink" xml:space="preserve" xmlns:serif="http://www.serif.com/" style="fill-rule:evenodd;clip-rule:evenodd;stroke-linejoin:round;stroke-miterlimit:2;"><path d="M786,2612.05c-22.5,-5.611 -21.667,-5.222 -147.222,-97.889c-55.889,-41.555 -379.389,-279.333 -524.889,-386.278c-55.889,-41.166 -104.389,-74.944 -107.833,-74.944c-5.223,-0 -6.056,-138.167 -6.056,-998.667l-0,-998.666l9.111,-16.445c13,-22.5 35.945,-34.666 66.667,-34.666c13.444,-0 28.555,2.166 33.333,4.777c4.778,2.611 57.611,41.167 117.778,85.723c59.778,44.611 196.611,145.944 303.555,225.611c332.167,247.277 332.612,247.722 341.278,264.611c7.389,15.166 7.778,66.666 8.222,991.722c0.889,919.389 0.445,977 -6.5,991.722c-12.555,26 -32.888,42.445 -55,44.611c-10.833,1.278 -25.111,0.445 -32.5,-1.277l0.056,0.055Zm-141.611,-1002.56c16.444,-8.667 33.333,-28.167 39.389,-45.445c3.055,-9.111 4.778,-48.944 4.778,-103.944c-0,-84.445 -0.445,-90.5 -9.5,-108.723c-5.612,-10.833 -16.889,-23.833 -25.112,-29.444c-17.494,-7.352 -20.648,-8.198 -45.055,-7.778c-34.667,3.056 -55.445,13.834 -66.667,34.222c-6.055,11.667 -7.778,28.556 -8.666,106.556c-1.723,102.611 0.888,118.222 24.666,140.722c20.334,19.5 62.389,26 86.167,13.834Z" style="fill:#1fcf42;fill-rule:nonzero;"/><path d="M1030.67,1339.71c-0,-618.389 -1.278,-744.445 -6.056,-768.278c-9.111,-42.889 -29.889,-79.667 -62.778,-112.167c-22.111,-22.5 -426.111,-328.722 -570.777,-433.055c-14.723,-10.834 -27.278,-20.778 -27.278,-22.5c-0,-2.167 257.222,-3.445 572.055,-3.445c387.611,0 565.601,-0.603 569.056,0c14.944,2.611 13.278,-1.944 19.333,11c1.33,2.843 8.834,373.111 8.834,1029.67c-0,1080.94 2.611,989.111 -29.445,1022.06l-15.611,16l-457.333,-0l-0,-739.278Z" style="fill:#1fcf42;fill-rule:nonzero;"/></svg>